<svg id="a139" xmlns="http://www.w3.org/2000/svg" xmlns:xlink="http://www.w3.org/1999/xlink" viewBox="0 0 900 500"><defs><style>.cls-1{fill:none;}.cls-2{clip-path:url(#clip-path);}.cls-3{fill:#fff;}.cls-4{fill:#3046d2;}.cls-5{fill:url(#Untitled_Gradient_3);}.cls-6{fill:url(#Untitled_Gradient_3-2);}.cls-7{fill:url(#Untitled_Gradient_3-3);}.cls-8{fill:url(#Untitled_Gradient_2);}.cls-9{fill:url(#Untitled_Gradient);}.cls-10{fill:url(#Untitled_Gradient_2-2);}.cls-11{fill:url(#Untitled_Gradient_2-3);}.cls-12{fill:url(#Untitled_Gradient_2-4);}.cls-13{fill:url(#Untitled_Gradient_2-5);}.cls-14{fill:url(#Untitled_Gradient-2);}.cls-15{fill:url(#Untitled_Gradient-3);}.cls-16{fill:url(#Untitled_Gradient-4);}.cls-17{fill:url(#Untitled_Gradient-5);}.cls-18{fill:url(#Untitled_Gradient-6);}.cls-19{fill:url(#Untitled_Gradient-7);}.cls-20{fill:url(#Untitled_Gradient-8);}.cls-21{fill:url(#Untitled_Gradient-9);}.cls-22{fill:url(#Untitled_Gradient-10);}.cls-23{fill:url(#Untitled_Gradient_3-4);}.cls-24{fill:url(#Untitled_Gradient_3-5);}</style><clipPath id="clip-path"><rect class="cls-1" width="900" height="500"/></clipPath><linearGradient id="Untitled_Gradient_3" x1="6651.21" y1="-2937.22" x2="6746.51" y2="-2937.22" gradientTransform="translate(-5533.89 -4096.59) rotate(58)" gradientUnits="userSpaceOnUse"><stop offset="0" stop-color="#4256d4"/><stop offset="1" stop-color="#7e92ff"/></linearGradient><linearGradient id="Untitled_Gradient_3-2" x1="5892.19" y1="-12312.35" x2="6125.53" y2="-12312.35" gradientTransform="translate(-3592.52 -12627.78) rotate(136)" xlink:href="#Untitled_Gradient_3"/><linearGradient id="Untitled_Gradient_3-3" x1="-5906.5" y1="-3738.02" x2="-5754.38" y2="-3738.02" gradientTransform="translate(6697.87 -3457.56) rotate(-64)" xlink:href="#Untitled_Gradient_3"/><linearGradient id="Untitled_Gradient_2" x1="7726.91" y1="-5554.03" x2="7880.42" y2="-5554.03" gradientTransform="translate(-6480.18 -5882.29) rotate(76)" gradientUnits="userSpaceOnUse"><stop offset="0" stop-color="#00a69d"/><stop offset="1" stop-color="#1fe2d9"/></linearGradient><linearGradient id="Untitled_Gradient" x1="-4950.32" y1="-11528.32" x2="-4805.66" y2="-11528.32" gradientTransform="translate(6644.3 -11006.36) rotate(-129)" gradientUnits="userSpaceOnUse"><stop offset="0" stop-color="#b8e1d6"/><stop offset="1" stop-color="#f4ffff"/></linearGradient><linearGradient id="Untitled_Gradient_2-2" x1="971.82" y1="459.46" x2="1065.45" y2="459.46" gradientTransform="translate(-124.35 -12.25) rotate(1)" xlink:href="#Untitled_Gradient_2"/><linearGradient id="Untitled_Gradient_2-3" x1="6176.57" y1="-11785.5" x2="6366.87" y2="-11785.5" gradientTransform="matrix(-0.67, 0.74, -0.74, -0.67, -3910.76, -12434.8)" xlink:href="#Untitled_Gradient_2"/><linearGradient id="Untitled_Gradient_2-4" x1="4474.1" y1="-13461.22" x2="4533.11" y2="-13461.22" gradientTransform="translate(-1805.07 -13709.18) rotate(151)" xlink:href="#Untitled_Gradient_2"/><linearGradient id="Untitled_Gradient_2-5" x1="-4604.44" y1="-2518.84" x2="-4546.91" y2="-2518.84" gradientTransform="translate(5382 -1496.32) rotate(-46)" xlink:href="#Untitled_Gradient_2"/><linearGradient id="Untitled_Gradient-2" x1="2924.37" y1="-14018.67" x2="3135.96" y2="-14018.67" gradientTransform="translate(-473.27 -14110.22) rotate(164)" xlink:href="#Untitled_Gradient"/><linearGradient id="Untitled_Gradient-3" x1="-1887.64" y1="-13545.67" x2="-1834.39" y2="-13545.67" gradientTransform="translate(3295.68 -13461.78) rotate(-162)" xlink:href="#Untitled_Gradient"/><linearGradient id="Untitled_Gradient-4" x1="7281" y1="-9305.17" x2="7365.01" y2="-9305.17" gradientTransform="translate(-6052.01 -9422.52) rotate(106)" xlink:href="#Untitled_Gradient"/><linearGradient id="Untitled_Gradient-5" x1="-6425.84" y1="-8940.37" x2="-6362.89" y2="-8940.37" gradientTransform="translate(7587.15 -8369.43) rotate(-107)" xlink:href="#Untitled_Gradient"/><linearGradient id="Untitled_Gradient-6" x1="5183.79" y1="-1561.71" x2="5259.87" y2="-1561.71" gradientTransform="translate(-4596.22 -2314.17) rotate(43)" xlink:href="#Untitled_Gradient"/><linearGradient id="Untitled_Gradient-7" x1="4428.46" y1="-720.7" x2="4472.59" y2="-720.7" gradientTransform="matrix(0.86, 0.52, -0.52, 0.86, -3484.45, -1417.14)" xlink:href="#Untitled_Gradient"/><linearGradient id="Untitled_Gradient-8" x1="7373.43" y1="-4255.24" x2="7428.47" y2="-4255.24" gradientTransform="translate(-5906.09 -5061.09) rotate(67)" xlink:href="#Untitled_Gradient"/><linearGradient id="Untitled_Gradient-9" x1="-5071.95" y1="-2852.78" x2="-5021.47" y2="-2852.78" gradientTransform="matrix(0.57, -0.82, 0.82, 0.57, 6123.51, -2221.74)" xlink:href="#Untitled_Gradient"/><linearGradient id="Untitled_Gradient-10" x1="-4859.31" y1="-11995.23" x2="-4701.98" y2="-11995.23" gradientTransform="matrix(-0.64, -0.77, 0.77, -0.64, 6595.66, -10907.56)" xlink:href="#Untitled_Gradient"/><linearGradient id="Untitled_Gradient_3-4" x1="7877.48" y1="-5390.23" x2="7942.74" y2="-5390.23" gradientTransform="translate(-6389.81 -5901.7) rotate(76)" xlink:href="#Untitled_Gradient_3"/><linearGradient id="Untitled_Gradient_3-5" x1="3027.68" y1="-13938.63" x2="3103.38" y2="-13938.63" gradientTransform="translate(-1271.83 -13866.67) rotate(161)" xlink:href="#Untitled_Gradient_3"/></defs><g class="cls-2"><rect class="cls-3" width="900" height="500"/><path class="cls-4" d="M25.78,420.46a2.65,2.65,0,1,1-2.65-2.66A2.65,2.65,0,0,1,25.78,420.46ZM37.3,417.8A2.66,2.66,0,1,0,40,420.46,2.65,2.65,0,0,0,37.3,417.8Zm14.16,0a2.66,2.66,0,1,0,2.65,2.66A2.65,2.65,0,0,0,51.46,417.8Zm14.16,0a2.66,2.66,0,1,0,2.66,2.66A2.66,2.66,0,0,0,65.62,417.8Zm14.17,5.31a2.66,2.66,0,1,0-2.65-2.65A2.65,2.65,0,0,0,79.79,423.11ZM23.13,432a2.65,2.65,0,1,0,2.65,2.65A2.65,2.65,0,0,0,23.13,432Zm14.17,0A2.65,2.65,0,1,0,40,434.62,2.65,2.65,0,0,0,37.3,432Zm14.16,0a2.65,2.65,0,1,0,2.65,2.65A2.65,2.65,0,0,0,51.46,432Zm14.16,0a2.65,2.65,0,1,0,2.66,2.65A2.65,2.65,0,0,0,65.62,432Zm14.17,0a2.65,2.65,0,1,0,2.65,2.65A2.65,2.65,0,0,0,79.79,432ZM23.13,446.13a2.65,2.65,0,1,0,2.65,2.65A2.65,2.65,0,0,0,23.13,446.13Zm14.17,0A2.65,2.65,0,1,0,40,448.78,2.65,2.65,0,0,0,37.3,446.13Zm14.16,0a2.65,2.65,0,1,0,2.65,2.65A2.65,2.65,0,0,0,51.46,446.13Zm14.16,0a2.65,2.65,0,1,0,2.66,2.65A2.65,2.65,0,0,0,65.62,446.13Zm14.17,0a2.65,2.65,0,1,0,2.65,2.65A2.65,2.65,0,0,0,79.79,446.13ZM23.13,460.3A2.65,2.65,0,1,0,25.78,463,2.65,2.65,0,0,0,23.13,460.3Zm14.17,0A2.65,2.65,0,1,0,40,463,2.64,2.64,0,0,0,37.3,460.3Zm14.16,0A2.65,2.65,0,1,0,54.11,463,2.64,2.64,0,0,0,51.46,460.3Zm14.16,0A2.65,2.65,0,1,0,68.28,463,2.65,2.65,0,0,0,65.62,460.3Zm14.17,0A2.65,2.65,0,1,0,82.44,463,2.64,2.64,0,0,0,79.79,460.3ZM23.13,474.46a2.65,2.65,0,1,0,2.65,2.65A2.65,2.65,0,0,0,23.13,474.46Zm14.17,0A2.65,2.65,0,1,0,40,477.11,2.65,2.65,0,0,0,37.3,474.46Zm14.16,0a2.65,2.65,0,1,0,2.65,2.65A2.65,2.65,0,0,0,51.46,474.46Zm14.16,0a2.65,2.65,0,1,0,2.66,2.65A2.65,2.65,0,0,0,65.62,474.46Zm14.17,0a2.65,2.65,0,1,0,2.65,2.65A2.65,2.65,0,0,0,79.79,474.46Z"/><path class="cls-5" d="M534.7,10.06A33.12,33.12,0,1,1,489.05-.48,33.15,33.15,0,0,1,534.7,10.06M547,2.37A47.64,47.64,0,1,0,531.85,68,47.64,47.64,0,0,0,547,2.37Z"/><path class="cls-6" d="M680.58,293.93c-.94-.37-1.86-.7-2.83-1.05l-3.87,221.24c1-.29,1.93-.63,2.87-.94ZM672,291c-.93-.27-1.89-.55-2.84-.8l-4,226.31c1-.23,1.92-.46,2.86-.71Zm-17.31-3.72c-.93-.12-1.88-.26-2.84-.37l-4,232.26c.94-.06,1.89-.15,2.84-.25Zm34.56,10.37c-1-.45-1.89-.89-2.83-1.31L682.63,511c1-.41,1.92-.8,2.87-1.23ZM646,286.42c-1-.08-1.92-.12-2.86-.15l-4.08,233.25c1,0,1.91,0,2.87,0Zm17.3,2.37c-.94-.2-1.87-.38-2.83-.57l-4,230,2.85-.49Zm34.48,13.45c-.91-.54-1.86-1.08-2.79-1.6L691.38,507c1-.49,1.92-1,2.89-1.52Zm51,61.95q-1.24-3.56-2.73-7l-1.64,95.11c1.05-2.27,2.05-4.58,3-6.93Zm5.45,22.44-.63,36.48a119.12,119.12,0,0,0,.63-36.48Zm-13.79-40.89c-.91-1.59-1.82-3.13-2.76-4.66l-2.23,127c1-1.5,2-3,2.92-4.57Zm-17-23c-.92-1-1.85-1.94-2.81-2.88l-2.93,168.82q1.46-1.35,2.88-2.79ZM732,332.79c-.92-1.2-1.86-2.38-2.8-3.55l-2.62,150.34c1-1.13,1.95-2.29,2.89-3.45ZM715,314.55c-.91-.79-1.86-1.58-2.81-2.36L708.93,496c1-.72,2-1.47,2.86-2.25Zm-8.57-6.73c-.9-.66-1.86-1.33-2.81-2l-3.42,196.2c1-.6,1.93-1.22,2.89-1.85Zm-86.46-20.13c-.95.15-1.89.32-2.86.49l-4,228.52c.94.21,1.88.42,2.83.61ZM549.78,327.3c-1,1.18-1.95,2.35-2.89,3.57l-2.47,140.72c.89,1.24,1.84,2.47,2.79,3.67Zm17.65-16.83c-1,.74-1.93,1.51-2.89,2.3L561.46,490.3c.92.8,1.85,1.61,2.79,2.39Zm-8.8,7.54c-1,.91-2,1.85-2.89,2.81L552.91,482c.91,1,1.87,2,2.81,2.92Zm-17.74,21.2c-1,1.56-2,3.12-2.92,4.74L536,458.2c.87,1.64,1.81,3.26,2.76,4.85Zm96.43-53c-1,0-1.92,0-2.85.05l-4.07,233,2.83.18ZM531.93,355.73c-1.09,2.43-2.06,4.93-3,7.42l-1.3,75.56c.8,2.53,1.72,5.05,2.7,7.51Zm-9.64,55,.34-19.79c-.33,3.25-.52,6.55-.59,9.88S522.07,407.46,522.29,410.73Zm88.92-121.3c-1,.23-1.92.48-2.85.73l-3.91,224.26c.93.28,1.87.55,2.81.81Zm-8.7,2.48c-1,.32-1.93.64-2.88,1l-3.8,218.49c.91.39,1.86.74,2.8,1.08Zm26.12-5.3c-1,.09-1.92.16-2.85.28l-4,231.41c1,.15,1.9.27,2.84.38Zm-52.4,17.69c-1,.62-1.93,1.25-2.87,1.89l-3.32,191c.9.66,1.85,1.33,2.79,2Zm8.77-5.06c-1,.5-1.92,1-2.88,1.55l-3.51,202.09c.92.56,1.85,1.11,2.81,1.64Zm8.75-4.07c-1,.39-1.92.81-2.88,1.23l-3.66,211.17c.91.46,1.86.9,2.81,1.35Z"/><path class="cls-7" d="M815.41,75.72a76.06,76.06,0,1,0,35,101.7A76,76,0,0,0,815.41,75.72Z"/><path class="cls-8" d="M870.3,324.53l1.62,6.46-15.1,3.77-1.61-6.46Zm-12.45,22.88-.48,6.66,15.52,1.11.48-6.65Zm8.42,31.06,2.53-6.17-14.4-5.9-2.53,6.17Zm-25.39,10,11.86,10.09,4.32-5.08L845.2,383.38ZM825.5,400.12l8.12,13.28,5.69-3.48-8.13-13.28Zm-11.76,4.77-6.49,1.53,3.58,15.15,6.49-1.54Zm-25.8,1.84-1.31,15.51,6.64.56,1.33-15.51ZM769.49,401l-6.06,14.32,6.13,2.61,6.08-14.33Zm-15.74-11.18-10.24,11.73,5,4.38,10.23-11.72Zm-11.47-15.52-13.39,8L732.3,388l13.37-8ZM721,359.38l1.47,6.51,15.17-3.4L736.17,356Zm-.37-24.21-.63,6.65,15.48,1.49.65-6.64Zm7.17-23.12-2.66,6.11,14.25,6.25,2.68-6.11Zm25.63-9.35-11.6-10.38-4.45,5L749,307.67Zm15.67-11.31-7.79-13.46-5.78,3.34,7.8,13.47Zm18.39-5.85-3.2-15.24-6.54,1.39L781,286.91Zm19.32.16,1.67-15.47-6.62-.73L800.16,285Zm18.3,6.16,6.4-14.18-6.07-2.74L819,289.11Zm21-4.43-10.51,11.48,4.92,4.51,10.51-11.48ZM862,305.77l-13.57,7.64,3.26,5.8,13.57-7.63Z"/><path class="cls-9" d="M811.56-6.41a72.32,72.32,0,1,1-101.72-10.7A72.39,72.39,0,0,1,811.56-6.41ZM717.26,70A49,49,0,1,0,724.5,1,49.07,49.07,0,0,0,717.26,70Z"/><path class="cls-10" d="M885.3,419.63l3.06.06-1.58,90.56-3.06-.05Zm-12.85,87.89,3.06.05L877,422l-3.06-.05Zm-11.26-4.26,3.07.05,1.35-77.48-3.07-.05Zm-11.15-10,3.07.06,1-57.89-3.06-.05Zm-11-16.52,3.07.05.44-25.23-3.06-.05Zm56.07,31.17,3.06,0,1.49-85.59-3.06-.06Zm11.39-3.86,3.07.06,1.35-77.48-3.07-.06Zm11.49-9.6,3.06.05,1-57.88-3.06-.06Zm12-41.36-.44,25.23,3.07.05.43-25.23Z"/><path class="cls-11" d="M626.19,203.35l-64.47-58a95.18,95.18,0,0,0,64.47,58ZM625.13,19.72a95.46,95.46,0,0,0-12.45,4.4L741.39,140a92.24,92.24,0,0,0,3.08-12.84Zm-23,9.76a99.8,99.8,0,0,0-9.89,6.74L731.49,161.56A92.48,92.48,0,0,0,737.16,151Zm72.9-10.08,64.49,58.06A95.43,95.43,0,0,0,675.07,19.4Zm69.61,77.53L655.2,16.36a96,96,0,0,0-16.61.65l107.18,96.51A95.84,95.84,0,0,0,744.68,96.93ZM559.88,82.76a98.43,98.43,0,0,0-3.08,12.85L676.15,203.06a94.72,94.72,0,0,0,12.44-4.4Zm102.81,123-107.18-96.5a96.09,96.09,0,0,0,1.09,16.6l89.48,80.57A96.09,96.09,0,0,0,662.69,205.77Zm62.41-35.14L583.94,43.53c-1.35,1.35-2.7,2.74-4,4.19s-2.53,2.94-3.75,4.44L717.33,179.25c1.38-1.36,2.73-2.75,4-4.2S723.9,172.12,725.1,170.63ZM569.77,61.21a99.81,99.81,0,0,0-5.64,10.53l135,121.54a93.82,93.82,0,0,0,9.87-6.72Z"/><path class="cls-12" d="M804.75,265.64a2.52,2.52,0,1,1,3.43,1A2.52,2.52,0,0,1,804.75,265.64Zm-8.37,7.53a2.53,2.53,0,1,0-3.43-1A2.53,2.53,0,0,0,796.38,273.17Zm-11.8,6.54a2.53,2.53,0,1,0-3.44-1A2.53,2.53,0,0,0,784.58,279.71Zm28.86-31.42a2.53,2.53,0,1,0-3.44-1A2.53,2.53,0,0,0,813.44,248.29Zm-11.8,6.54a2.53,2.53,0,1,0-3.43-1A2.53,2.53,0,0,0,801.64,254.83Zm-11.8,6.54a2.53,2.53,0,1,0-3.44-1A2.53,2.53,0,0,0,789.84,261.37ZM778,267.91a2.53,2.53,0,1,0-3.44-1A2.54,2.54,0,0,0,778,267.91ZM763.79,270a2.53,2.53,0,1,0,3.43,1A2.52,2.52,0,0,0,763.79,270Zm43.1-33.54a2.52,2.52,0,1,0-3.43-1A2.52,2.52,0,0,0,806.89,236.49ZM795.1,243a2.53,2.53,0,1,0-3.43-1A2.53,2.53,0,0,0,795.1,243Zm-11.8,6.54a2.53,2.53,0,1,0-3.44-1A2.52,2.52,0,0,0,783.3,249.57Zm-11.8,6.54a2.53,2.53,0,1,0-3.44-1A2.53,2.53,0,0,0,771.5,256.11Zm-11.8,6.54a2.53,2.53,0,1,0-3.43-1A2.54,2.54,0,0,0,759.7,262.65Zm40.66-38a2.53,2.53,0,1,0-3.44-1A2.54,2.54,0,0,0,800.36,224.69Zm-11.8,6.54a2.53,2.53,0,1,0-3.43-1A2.53,2.53,0,0,0,788.56,231.23Zm-11.8,6.54a2.53,2.53,0,1,0-3.44-1A2.53,2.53,0,0,0,776.76,237.77ZM765,244.31a2.53,2.53,0,1,0-3.44-1A2.53,2.53,0,0,0,765,244.31Zm-11.8,6.54a2.53,2.53,0,1,0-3.43-1A2.53,2.53,0,0,0,753.16,250.85ZM782,219.43a2.53,2.53,0,1,0-3.44-1A2.54,2.54,0,0,0,782,219.43ZM770.22,226a2.53,2.53,0,1,0-3.44-1A2.52,2.52,0,0,0,770.22,226Zm-11.8,6.54a2.53,2.53,0,1,0-3.44-1A2.54,2.54,0,0,0,758.42,232.51Z"/><path class="cls-13" d="M377.1,31.23a20,20,0,1,1,.49,28.28,20,20,0,0,1-.49-28.28m-6.31-6.09a28.76,28.76,0,1,0,40.67-.71,28.77,28.77,0,0,0-40.67.71Z"/><path class="cls-14" d="M557.3,131.65c-.6-.68-1.21-1.34-1.83-2L458.19,305.12c.91.17,1.81.32,2.7.47Zm-5.66-6c-.63-.63-1.28-1.25-1.93-1.86L450.2,303.32c.87.23,1.73.44,2.59.65ZM539.38,115.3c-.7-.5-1.41-1-2.13-1.51L435.13,298.05c.78.35,1.58.67,2.38,1Zm23.23,23c-.56-.77-1.12-1.53-1.7-2.26L466.53,306.33c.94.08,1.87.17,2.83.23Zm-29.8-27.39q-1.12-.71-2.22-1.35L428,294.62c.77.41,1.54.8,2.32,1.19Zm12.84,9.26c-.67-.56-1.33-1.11-2-1.67L442.51,301l2.49.82Zm21.89,25.46c-.51-.83-1-1.67-1.57-2.48L475.25,306.84c1,0,1.95,0,2.93,0ZM582,217c.35-2.24.61-4.52.8-6.79L541,285.62c1.8-1.36,3.58-2.79,5.3-4.29Zm-5.19,20.29-16,28.94a107.42,107.42,0,0,0,9.13-13.86A105,105,0,0,0,576.82,237.25Zm6.36-38.61c0-1.66-.11-3.28-.22-4.91L527.11,294.46q2.17-1.17,4.3-2.42ZM579.39,173c-.32-1.17-.66-2.35-1-3.51L504.15,303.41c1.16-.31,2.33-.64,3.49-1Zm2.53,11.68c-.22-1.36-.46-2.7-.71-4L515.09,299.9c1.27-.5,2.54-1,3.8-1.53ZM576,162.79c-.39-1-.81-2-1.24-3.07L494,305.54c1.09-.17,2.18-.36,3.26-.58Zm-4-9c-.46-.92-.93-1.87-1.42-2.78L484.36,306.62c1-.05,2.07-.14,3.1-.24Zm-60.65-52.93c-.83-.29-1.66-.55-2.51-.82L408.41,281.3c.67.57,1.33,1.14,2,1.69Zm-73,1.85c-1.29.52-2.57,1-3.84,1.63L372.63,215.94c.2,1.39.43,2.78.68,4.13Zm21.3-6c-1.1.19-2.19.4-3.29.61L378.31,238.19c.39,1,.79,2.07,1.22,3.09ZM449.41,99c-1.18.31-2.35.66-3.52,1L375,227.85c.32,1.18.66,2.37,1,3.54Zm-23.24,9.42c-1.47.82-2.93,1.65-4.36,2.55l-50.24,90.64c0,1.68.06,3.38.15,5.06ZM526,107c-.77-.39-1.55-.79-2.31-1.16L421.19,290.69c.74.47,1.46.9,2.21,1.35ZM412,117.85c-1.9,1.49-3.75,3.08-5.55,4.68L373.2,182.47c-.42,2.38-.77,4.77-1,7.17Zm-31.14,39.93,8.7-15.7c-1.64,2.47-3.21,5-4.68,7.68S382,155.08,380.82,157.78ZM503.67,98.52c-.86-.21-1.74-.43-2.59-.62L402.46,275.79q.93.94,1.92,1.86Zm-8-1.72-2.71-.44L396.85,269.69c.58.7,1.19,1.39,1.79,2.06Zm23.19,6.88c-.8-.33-1.61-.67-2.42-1L414.65,286.26c.7.53,1.41,1,2.12,1.51Zm-49.5-8.14c-1,.08-2.07.18-3.09.29l-84,151.51c.45.92.91,1.86,1.4,2.78Zm9.19-.31c-1,0-2,0-3,0L386.69,255.54c.5.86,1,1.7,1.55,2.53Zm8.74.46c-.95-.1-1.89-.18-2.84-.24L391.57,263c.55.76,1.12,1.51,1.69,2.29Z"/><path class="cls-15" d="M854.76-11.67a26.63,26.63,0,0,0,17.09,33.56,26.64,26.64,0,0,0,33.56-17.1,26.63,26.63,0,0,0-17.1-33.56A26.62,26.62,0,0,0,854.76-11.67Z"/><path class="cls-16" d="M915.66,191.53l-1,3.51-8.19-2.35,1-3.5ZM903.5,199l-2,3,7,4.78,2-3ZM899,216l2.89-2.24L896.66,207l-2.88,2.23Zm-14.77-2.23,2.86,8,3.44-1.22-2.86-8Zm-10.48,1.33.22,8.51,3.65-.09-.22-8.51Zm-6.87-1-3.5-1-2.45,8.16,3.5,1.05ZM854.13,208l-4.86,7,3,2.09,4.87-7ZM847,200.2l-6.8,5.13,2.2,2.91,6.79-5.13Zm-4.41-9.61-8,2.76,1.18,3.45,8.05-2.75Zm-1.19-10.5-8.52.11,0,3.65,8.51-.11Zm-6-12.9-1.09,3.49,8.12,2.54,1.09-3.48Zm6.45-11.57-2.12,3,6.93,4.94,2.12-3Zm9.72-9-2.93,2.16,5,6.86,3-2.16Zm14.71,2.58-2.66-8.1-3.47,1.14,2.66,8.09Zm10.52-1.07v-8.52h-3.66l0,8.52Zm10.31,2.26,2.65-8.1-3.47-1.14-2.64,8.1Zm9.12,5.36,5-6.88-2.94-2.15-5,6.87Zm7,7.92,6.92-5-2.12-3-6.93,5Zm11.19,3.67-8.11,2.56,1.09,3.48,8.12-2.56Zm2.48,13-8.52-.09,0,3.64,8.52.1Z"/><path class="cls-17" d="M937.28,350.47a31.47,31.47,0,1,1-39.3-20.9A31.51,31.51,0,0,1,937.28,350.47Zm-50.5,15.44a21.34,21.34,0,1,0,14.16-26.65A21.36,21.36,0,0,0,886.78,365.91Z"/><path class="cls-18" d="M312.3,77.12l1.82,1.69-50.2,53.84L262.1,131ZM256.75,123.2l1.82,1.7L306,74l-1.82-1.7Zm-4.49-8.69,1.83,1.7,43-46.06-1.83-1.7ZM251,102.41l1.82,1.7L284.88,69.7,283.06,68Zm2.32-16,1.83,1.7,14-15-1.82-1.69Zm16.91,49.32,1.83,1.69,47.44-50.88-1.82-1.7Zm9,3.86,1.83,1.7L324,95.25l-1.82-1.69Zm12.16.45,1.82,1.7,32.09-34.41-1.82-1.7Zm29.76-18.43-14,15,1.82,1.7,14-15Z"/><path class="cls-19" d="M723.72,258.59l-10.36,17.25a22.09,22.09,0,0,0,10.36-17.25ZM682,267a23.44,23.44,0,0,0,1.56,2.64l20.68-34.43a20.83,20.83,0,0,0-3.06-.13Zm3.24,4.8a24.19,24.19,0,0,0,2,1.95l22.38-37.24a20.2,20.2,0,0,0-2.65-.82Zm-5.52-16.16L690,238.35a22.16,22.16,0,0,0-10.36,17.25Zm14.57-19.27-14.38,23.93a22.07,22.07,0,0,0,.88,3.76L698,235.35A21.78,21.78,0,0,0,694.25,236.33Zm5,42.69a22.39,22.39,0,0,0,3.06.14l19.18-31.93a22,22,0,0,0-1.55-2.64Zm23.46-28.85-17.23,28.67a20.9,20.9,0,0,0,3.73-1l14.38-23.93A22.07,22.07,0,0,0,722.66,250.17Zm-10.77-12.65-22.68,37.76c.37.25.74.5,1.13.73s.78.45,1.18.66l22.68-37.76c-.37-.25-.74-.5-1.13-.73S712.29,237.73,711.89,237.52Zm-18,40.2a23.67,23.67,0,0,0,2.64.83l21.7-36.11a21.22,21.22,0,0,0-2-1.95Z"/><path class="cls-20" d="M921.57,69.72a2.35,2.35,0,1,1,1.25-3.09A2.35,2.35,0,0,1,921.57,69.72Zm6.17,8.5a2.36,2.36,0,1,0-1.25,3.09A2.35,2.35,0,0,0,927.74,78.22Zm4.92,11.58a2.36,2.36,0,1,0-1.25,3.09A2.35,2.35,0,0,0,932.66,89.8ZM906.32,60a2.35,2.35,0,1,0-1.24,3.09A2.34,2.34,0,0,0,906.32,60Zm4.92,11.58A2.36,2.36,0,1,0,910,74.64,2.35,2.35,0,0,0,911.24,71.55Zm4.92,11.58a2.36,2.36,0,1,0-1.25,3.09A2.36,2.36,0,0,0,916.16,83.13Zm4.91,11.58a2.35,2.35,0,1,0-1.24,3.1A2.35,2.35,0,0,0,921.07,94.71Zm.58,13.43a2.36,2.36,0,1,0,1.25-3.09A2.36,2.36,0,0,0,921.65,108.14ZM894.74,64.89A2.35,2.35,0,1,0,893.49,68,2.35,2.35,0,0,0,894.74,64.89Zm4.92,11.58a2.35,2.35,0,1,0-1.25,3.08A2.35,2.35,0,0,0,899.66,76.47Zm4.92,11.58a2.36,2.36,0,1,0-1.25,3.09A2.36,2.36,0,0,0,904.58,88.05Zm4.91,11.58a2.35,2.35,0,1,0-1.24,3.09A2.37,2.37,0,0,0,909.49,99.63Zm4.92,11.58a2.36,2.36,0,1,0-1.25,3.09A2.36,2.36,0,0,0,914.41,111.21ZM883.16,69.8a2.36,2.36,0,1,0-1.25,3.09A2.36,2.36,0,0,0,883.16,69.8Zm4.92,11.58a2.36,2.36,0,1,0-1.25,3.09A2.36,2.36,0,0,0,888.08,81.38ZM893,93a2.35,2.35,0,1,0-1.25,3.09A2.35,2.35,0,0,0,893,93Zm4.92,11.59a2.36,2.36,0,1,0-1.25,3.09A2.35,2.35,0,0,0,897.91,104.55Zm4.92,11.58a2.36,2.36,0,1,0-1.25,3.09A2.36,2.36,0,0,0,902.83,116.13ZM876.5,86.3a2.36,2.36,0,1,0-1.25,3.09A2.36,2.36,0,0,0,876.5,86.3Zm4.91,11.58a2.36,2.36,0,1,0-1.25,3.09A2.36,2.36,0,0,0,881.41,97.88Zm4.92,11.58a2.36,2.36,0,1,0-1.25,3.09A2.36,2.36,0,0,0,886.33,109.46Z"/><path class="cls-21" d="M877.35,266.1a17.54,17.54,0,1,1,4.3,24.44,17.56,17.56,0,0,1-4.3-24.44M871,261.69a25.24,25.24,0,1,0,35.16-6.2,25.25,25.25,0,0,0-35.16,6.2Z"/><path class="cls-22" d="M551.6,498.24c.3-.61.56-1.22.85-1.86l-148.62-13c.14.67.33,1.32.48,2Zm2.39-5.66c.22-.62.45-1.25.66-1.87l-152-13.31c.11.67.23,1.32.35,2Zm3.31-11.46c.12-.63.26-1.26.38-1.9l-156-13.65c0,.64,0,1.28.05,1.93Zm-8.61,22.74c.35-.61.69-1.22,1-1.84L405.53,489.41c.22.67.43,1.32.68,2Zm9.59-28.52c.09-.65.18-1.28.24-1.92l-156.7-13.71c0,.65-.07,1.29-.11,1.93Zm-2.41,11.52c.18-.62.35-1.24.53-1.88L401.9,471.47c.07.65.13,1.29.2,1.94Zm-10.66,22.57c.4-.6.82-1.21,1.21-1.81L407.8,495.48c.28.68.58,1.34.89,2Zm-44.07,31.39c1.63-.44,3.25-1,4.86-1.51l-63.9-5.58c1.48.82,3,1.6,4.53,2.32Zm-15.34,2.61-24.52-2.14a80.82,80.82,0,0,0,12.18,2A79.58,79.58,0,0,0,485.8,543.43Zm28.14-7.36c1.11-.53,2.2-1.07,3.27-1.63L431.91,527c1,.75,1.94,1.47,2.93,2.18Zm16.27-10.32c.7-.57,1.4-1.16,2.08-1.76l-113.42-9.91c.56.69,1.14,1.39,1.75,2.07ZM523.05,531c.86-.57,1.68-1.13,2.51-1.71l-101-8.84c.72.72,1.45,1.42,2.19,2.11Zm13.08-10.62c.58-.57,1.14-1.17,1.7-1.77L414.35,507.8c.44.69.9,1.38,1.38,2ZM541,515c.5-.6,1-1.21,1.46-1.81L410.71,501.61c.35.68.72,1.35,1.1,2Zm17.62-57.21c-.06-.65-.13-1.3-.2-1.95L404.94,442.36l-.54,1.88Zm-23.35-49c-.74-.72-1.49-1.43-2.27-2.12l-94.52-8.28c-.88.55-1.76,1.13-2.61,1.71Zm10.49,12.66c-.45-.69-.93-1.37-1.4-2.05L425.12,408.88c-.58.57-1.16,1.17-1.74,1.76Zm-4.65-6.27c-.58-.71-1.16-1.41-1.76-2.08l-108.24-9.48c-.7.57-1.41,1.16-2.1,1.76Zm-13.43-12.93c-1-.76-2-1.5-3.05-2.19l-76.76-6.72c-1.14.52-2.27,1.06-3.38,1.63Zm31.12,67.34c0-.64.07-1.29.1-1.92l-156.51-13.7c-.09.64-.17,1.28-.25,1.91ZM517,395.35q-2.4-1.26-4.86-2.35l-50.76-4.44q-2.62.65-5.18,1.47Zm-36.54-9.08,13.29,1.16q-3.26-.54-6.62-.86C484.92,386.39,482.7,386.28,480.5,386.27Zm77.39,65.52c-.1-.65-.23-1.31-.35-2L406.88,436.66c-.24.61-.46,1.23-.67,1.86Zm-1.25-6c-.17-.66-.35-1.32-.53-2L409.33,431c-.3.61-.58,1.23-.85,1.84ZM559,463.64c0-.65,0-1.29-.05-1.94L403.46,448.11c-.15.63-.27,1.26-.39,1.89Zm-9.44-36.08c-.37-.68-.74-1.35-1.13-2L420.1,414.32c-.49.59-1,1.19-1.47,1.79Zm3,6.14c-.28-.67-.59-1.34-.89-2L415.86,419.82c-.42.6-.84,1.21-1.24,1.82Zm2.33,6.08c-.21-.66-.45-1.33-.69-2L412.3,425.38l-1,1.84Z"/><path class="cls-23" d="M761.69,501.24a32.63,32.63,0,1,0-39.56-23.76A32.62,32.62,0,0,0,761.69,501.24Z"/><path class="cls-24" d="M381.89,345.72l-3.1,1.07-2.5-7.26,3.1-1.07Zm-11.77-5.14-3.29.05.11,7.67,3.29-.05Zm-14.9,5.47,3.14,1,2.28-7.33-3.14-1Zm-6-12.05-4.44,6.27,2.68,1.9,4.44-6.26ZM342.83,327l-6.17,4.56,1.95,2.65,6.18-4.56ZM340,321.38l-1-3.13-7.29,2.42,1,3.12Zm-2-12.59-7.67,0v3.29l7.67,0Zm2-9.31-7.3-2.37-1,3.13,7.3,2.37Zm4.81-8.22-6.2-4.52-1.94,2.66,6.2,4.52Zm7.14-6.3-4.49-6.23-2.67,1.92,4.49,6.22Zm6.42-11.1-3.14,1,2.32,7.31,3.14-1Zm11.87-1.22-3.29,0-.07,7.67,3.29,0Zm11.67,2.53-3.12-1.05-2.46,7.27,3.12,1.06Zm5.7,12.18,4.6-6.14-2.64-2-4.6,6.15Zm6.22,7.22,6.29-4.41-1.9-2.7-6.28,4.41Zm3.67,8.78,7.34-2.23-1-3.15-7.34,2.24Zm.75,9.5,7.67.16.07-3.29-7.67-.16ZM396,322.1l7.24,2.54,1.09-3.1L397.09,319Zm3.08,10.16L393,327.59l-2,2.61,6.09,4.66Zm-8.33,8.55-4.33-6.34-2.72,1.86,4.34,6.34Z"/></g></svg>